<svg xmlns="http://www.w3.org/2000/svg" width="29" height="29" viewBox="0 0 29 29" fill="none">
  <path d="M7 14.1337C7 12.7194 7 12.0122 7.2859 11.3906C7.57179 10.769 8.10871 10.3088 9.18255 9.38837L10.2242 8.49551C12.1652 6.83184 13.1357 6 14.2917 6C15.4477 6 16.4182 6.83184 18.3591 8.49551L19.4008 9.38837C20.4746 10.3088 21.0115 10.769 21.2974 11.3906C21.5833 12.0122 21.5833 12.7194 21.5833 14.1337V18.5508C21.5833 20.515 21.5833 21.4971 20.9731 22.1073C20.3629 22.7175 19.3809 22.7175 17.4167 22.7175H11.1667C9.20248 22.7175 8.22039 22.7175 7.61019 22.1073C7 21.4971 7 20.515 7 18.5508V14.1337Z" stroke="url(#paint0_linear_269_2505)" stroke-width="2"/>
  <path d="M16.8958 22.7168V17.4668C16.8958 16.9145 16.4481 16.4668 15.8958 16.4668H12.6875C12.1352 16.4668 11.6875 16.9145 11.6875 17.4668V22.7168" stroke="url(#paint1_linear_269_2505)" stroke-width="2" stroke-linecap="round" stroke-linejoin="round"/>
  <defs>
    <linearGradient id="paint0_linear_269_2505" x1="14.2917" y1="6" x2="14.2917" y2="22.7175" gradientUnits="userSpaceOnUse">
      <stop stop-color="#F9638E"/>
      <stop offset="1" stop-color="#FCA98E"/>
    </linearGradient>
    <linearGradient id="paint1_linear_269_2505" x1="14.2917" y1="16.4668" x2="14.2917" y2="22.7168" gradientUnits="userSpaceOnUse">
      <stop stop-color="#F9638E"/>
      <stop offset="1" stop-color="#FCA98E"/>
    </linearGradient>
  </defs>
</svg>