<svg width="29" height="29" viewBox="0 0 29 29" fill="none" xmlns="http://www.w3.org/2000/svg">
<g id="shopping-cart (1) 1">
<g id="Group">
<path id="Vector" d="M6.74341 6.5H8.23495C9.16072 6.5 9.88934 7.2972 9.81219 8.2144L9.10071 16.7521C8.9807 18.1494 10.0865 19.3494 11.4923 19.3494H20.6215C21.8559 19.3494 22.9359 18.3379 23.0302 17.1121L23.4931 10.6831C23.596 9.26019 22.5159 8.10297 21.0844 8.10297H10.0179" stroke="#33363F" stroke-width="2" stroke-miterlimit="10" stroke-linecap="round" stroke-linejoin="round"/>
<path id="Vector_2" d="M18.9585 23.644C19.5503 23.644 20.03 23.1643 20.03 22.5725C20.03 21.9807 19.5503 21.501 18.9585 21.501C18.3667 21.501 17.887 21.9807 17.887 22.5725C17.887 23.1643 18.3667 23.644 18.9585 23.644Z" stroke="#33363F" stroke-width="2" stroke-miterlimit="10" stroke-linecap="round" stroke-linejoin="round"/>
<path id="Vector_3" d="M12.1008 23.644C12.6926 23.644 13.1723 23.1643 13.1723 22.5725C13.1723 21.9807 12.6926 21.501 12.1008 21.501C11.509 21.501 11.0293 21.9807 11.0293 22.5725C11.0293 23.1643 11.509 23.644 12.1008 23.644Z" stroke="#33363F" stroke-width="2" stroke-miterlimit="10" stroke-linecap="round" stroke-linejoin="round"/>
<path id="Vector_4" d="M12.7439 11.6433H23.0303" stroke="#33363F" stroke-width="2" stroke-miterlimit="10" stroke-linecap="round" stroke-linejoin="round"/>
</g>
</g>
</svg>
