<svg width="18" height="24" viewBox="0 0 18 24" fill="none" xmlns="http://www.w3.org/2000/svg">
<path id="Vector" d="M15.75 3H12C12 1.34531 10.6547 0 9 0C7.34531 0 6 1.34531 6 3H2.25C1.00781 3 0 4.00781 0 5.25V21.75C0 22.9922 1.00781 24 2.25 24H15.75C16.9922 24 18 22.9922 18 21.75V5.25C18 4.00781 16.9922 3 15.75 3ZM9 1.875C9.62344 1.875 10.125 2.37656 10.125 3C10.125 3.62344 9.62344 4.125 9 4.125C8.37656 4.125 7.875 3.62344 7.875 3C7.875 2.37656 8.37656 1.875 9 1.875ZM14.6813 12.7406L7.97812 19.3875C7.75781 19.6078 7.40156 19.6031 7.18125 19.3828L3.30937 15.4781C3.08906 15.2578 3.09375 14.9016 3.31406 14.6813L4.64531 13.3594C4.86562 13.1391 5.22187 13.1438 5.44219 13.3641L7.59844 15.5391L12.5672 10.6078C12.7875 10.3875 13.1438 10.3922 13.3641 10.6125L14.6859 11.9438C14.9062 12.1687 14.9016 12.5203 14.6813 12.7406Z" fill="#FCFCFC"/>
</svg>
