<svg width="29" height="29" viewBox="0 0 29 29" fill="none" xmlns="http://www.w3.org/2000/svg">
<g id="Box_open">
<path id="Rectangle 1" d="M7.5 13.8235C7.5 13.006 7.5 12.5972 7.65224 12.2297C7.80448 11.8621 8.09351 11.5731 8.67157 10.9951L9.82843 9.8382C10.4065 9.26014 10.6955 8.97111 11.0631 8.81887C11.4306 8.66663 11.8394 8.66663 12.6569 8.66663H16.3431C17.1606 8.66663 17.5694 8.66663 17.9369 8.81887C18.3045 8.97111 18.5935 9.26014 19.1716 9.8382L20.3284 10.9951C20.9065 11.5731 21.1955 11.8621 21.3478 12.2297C21.5 12.5972 21.5 13.006 21.5 13.8235V19.8333C21.5 21.7189 21.5 22.6617 20.9142 23.2475C20.3284 23.8333 19.3856 23.8333 17.5 23.8333H11.5C9.61438 23.8333 8.67157 23.8333 8.08579 23.2475C7.5 22.6617 7.5 21.7189 7.5 19.8333V13.8235Z" stroke="url(#paint0_linear_2715_3194)" stroke-width="2"/>
<path id="Vector 3" d="M11 8.66671L7.63867 6.42582C7.5547 6.36984 7.4453 6.36984 7.36133 6.42582L4.25373 8.49755C4.12247 8.58506 4.10408 8.77079 4.21563 8.88234L7.25838 11.9251C7.41308 12.0798 7.5 12.2896 7.5 12.5084V12.5084C7.5 12.964 7.86935 13.3334 8.32496 13.3334H20.675C21.1307 13.3334 21.5 12.964 21.5 12.5084V12.5084C21.5 12.2896 21.5869 12.0798 21.7416 11.9251L24.7844 8.88234C24.8959 8.77079 24.8775 8.58506 24.7463 8.49755L21.6387 6.42582C21.5547 6.36984 21.4453 6.36984 21.3613 6.42582L18 8.66671" stroke="url(#paint1_linear_2715_3194)" stroke-width="2" stroke-linecap="round"/>
</g>
<defs>
<linearGradient id="paint0_linear_2715_3194" x1="14.5" y1="8.66663" x2="14.5" y2="23.8333" gradientUnits="userSpaceOnUse">
<stop stop-color="#F9638E"/>
<stop offset="1" stop-color="#FCA98E"/>
</linearGradient>
<linearGradient id="paint1_linear_2715_3194" x1="13" y1="6.00004" x2="13.5" y2="29.5" gradientUnits="userSpaceOnUse">
<stop stop-color="#F9638E"/>
<stop offset="1" stop-color="#FCA98E"/>
</linearGradient>
</defs>
</svg>
