<svg width="29" height="29" viewBox="0 0 29 29" fill="none" xmlns="http://www.w3.org/2000/svg">
<g id="box 1">
<g id="Group">
<path id="Vector" d="M6.19824 11.3691L14.1014 15.9428L21.951 11.396" stroke="#33363F" stroke-width="2" stroke-linecap="round" stroke-linejoin="round"/>
<path id="Vector_2" d="M14.1013 24.0519V15.9338" stroke="#33363F" stroke-width="2" stroke-linecap="round" stroke-linejoin="round"/>
<path id="Vector_3" d="M12.2486 6.92962L7.46908 9.58792C6.38608 10.1876 5.5 11.6913 5.5 12.9264V17.9834C5.5 19.2186 6.38608 20.7222 7.46908 21.3219L12.2486 23.9802C13.269 24.5441 14.9427 24.5441 15.963 23.9802L20.7426 21.3219C21.8256 20.7222 22.7117 19.2186 22.7117 17.9834V12.9264C22.7117 11.6913 21.8256 10.1876 20.7426 9.58792L15.963 6.92962C14.9337 6.35679 13.269 6.35679 12.2486 6.92962Z" stroke="#33363F" stroke-width="2" stroke-linecap="round" stroke-linejoin="round"/>
<path id="Vector_4" d="M18.5765 16.5603V13.2845L10.0825 8.37964" stroke="#33363F" stroke-width="2" stroke-linecap="round" stroke-linejoin="round"/>
</g>
</g>
</svg>
