<svg width="22" height="22" viewBox="0 0 22 22" fill="none" xmlns="http://www.w3.org/2000/svg">
<path id="Vector" d="M17.6898 11.5258C17.6898 12.0269 17.2387 12.478 16.7376 12.478H5.31114C4.80998 12.478 4.35893 12.0269 4.35893 11.5258V10.5736C4.35893 10.0724 4.80998 9.62135 5.31114 9.62135H16.7877C17.2889 9.62135 17.7399 10.0724 17.7399 10.5736V11.5258H17.6898ZM15.7854 17.239C15.7854 17.7401 15.3343 18.1912 14.8332 18.1912H5.31114C4.80998 18.1912 4.35893 17.7401 4.35893 17.239V16.2868C4.35893 15.7856 4.80998 15.3346 5.31114 15.3346H14.8833C15.3844 15.3346 15.8355 15.7856 15.8355 16.2868V17.239H15.7854ZM4.35893 4.81021C4.35893 4.30905 4.80998 3.85801 5.31114 3.85801H14.8833C15.3844 3.85801 15.8355 4.30905 15.8355 4.81021V5.76242C15.8355 6.26358 15.3844 6.71462 14.8833 6.71462H5.31114C4.80998 6.71462 4.35893 6.26358 4.35893 5.76242V4.81021ZM18.642 0.0491943H3.40673C1.80302 0.0491943 0.5 1.35221 0.5 2.90581V19.1434C0.5 20.697 1.80302 22 3.35661 22H18.642C20.1956 22 21.4986 20.697 21.4986 19.1434V2.90581C21.5487 1.35221 20.2457 0.0491943 18.642 0.0491943Z" fill="#FCFCFC"/>
</svg>
