<svg width="24" height="24" viewBox="0 0 24 24" fill="none" xmlns="http://www.w3.org/2000/svg">
<path id="Vector" d="M21.6 7.2H2.4V4.8H21.6V7.2ZM19.2 0H4.8V2.4H19.2V0ZM24 12V21.6C24 22.2365 23.7471 22.847 23.2971 23.2971C22.847 23.7471 22.2365 24 21.6 24H2.4C1.76406 23.9981 1.15469 23.7447 0.70501 23.295C0.255328 22.8453 0.00187093 22.2359 0 21.6V12C0.00185834 11.3641 0.255312 10.7547 0.704997 10.305C1.15468 9.85531 1.76405 9.60186 2.4 9.6H21.6C22.2359 9.60186 22.8453 9.85531 23.295 10.305C23.7447 10.7547 23.9981 11.3641 24 12ZM14.3128 18.0504L17.1 15.6669L13.4294 15.3598L12 12L10.5706 15.3598L6.9 15.6669L9.68716 18.0504L8.84802 21.6L12 19.7134L15.152 21.6L14.3128 18.0504Z" fill="white"/>
</svg>
